<svg version="1.1" id="Layer_1" xmlns="http://www.w3.org/2000/svg" xmlns:xlink="http://www.w3.org/1999/xlink" x="0px" y="0px"
	 width="100%" viewBox="0 0 197 185" enable-background="new 0 0 197 185" xml:space="preserve">
<path fill="#030404" opacity="1.000000" stroke="none" 
	d="
M103.000000,186.000000 
	C68.666672,186.000000 34.833336,186.000000 1.000005,186.000000 
	C1.000003,124.333336 1.000003,62.666679 1.000002,1.000013 
	C66.666656,1.000009 132.333313,1.000009 197.999969,1.000004 
	C197.999985,62.666653 197.999985,124.333305 198.000000,185.999969 
	C166.500000,186.000000 135.000000,186.000000 103.000000,186.000000 
M84.738998,78.731972 
	C80.960785,78.731972 77.182571,78.731972 73.199890,78.731972 
	C73.199890,94.079269 73.199890,108.924942 73.199890,123.897987 
	C77.573639,123.897987 81.646553,123.897987 86.235756,123.897987 
	C86.235756,113.899239 86.302551,104.142998 86.208977,94.388306 
	C86.158447,89.120674 85.833778,83.855682 86.298897,78.936516 
	C95.717834,93.016365 105.099762,107.121353 114.616753,121.134598 
	C115.503166,122.439804 117.188721,123.915230 118.600044,124.021126 
	C123.380005,124.379768 128.203522,124.157967 133.220245,124.157967 
	C133.220245,101.927849 133.220245,80.041550 133.220245,58.132637 
	C128.716385,58.132637 124.480896,58.132637 119.837975,58.132637 
	C119.837975,73.429932 119.837975,88.441696 119.837975,104.674500 
	C109.726151,89.425064 100.331841,75.205360 90.848145,61.045532 
	C90.003464,59.784370 88.640205,58.098232 87.410965,58.004078 
	C82.731651,57.645672 78.008507,57.859520 72.928711,57.859520 
	C77.470322,65.235512 81.610329,71.959251 84.738998,78.731972 
z"/>
<path fill="#FDFDFD" opacity="1.000000" stroke="none" 
	d="
M85.750328,78.682991 
	C81.610329,71.959251 77.470322,65.235512 72.928711,57.859520 
	C78.008507,57.859520 82.731651,57.645672 87.410965,58.004078 
	C88.640205,58.098232 90.003464,59.784370 90.848145,61.045532 
	C100.331841,75.205360 109.726151,89.425064 119.837975,104.674500 
	C119.837975,88.441696 119.837975,73.429932 119.837975,58.132637 
	C124.480896,58.132637 128.716385,58.132637 133.220245,58.132637 
	C133.220245,80.041550 133.220245,101.927849 133.220245,124.157967 
	C128.203522,124.157967 123.380005,124.379768 118.600044,124.021126 
	C117.188721,123.915230 115.503166,122.439804 114.616753,121.134598 
	C105.099762,107.121353 95.717834,93.016365 85.977692,78.811325 
	C85.656479,78.686127 85.750328,78.682991 85.750328,78.682991 
z"/>
<path fill="#0086FF" opacity="1.000000" stroke="none" 
	d="
M85.244659,78.707481 
	C85.750328,78.682991 85.656479,78.686127 85.644638,78.637817 
	C85.833778,83.855682 86.158447,89.120674 86.208977,94.388306 
	C86.302551,104.142998 86.235756,113.899239 86.235756,123.897987 
	C81.646553,123.897987 77.573639,123.897987 73.199890,123.897987 
	C73.199890,108.924942 73.199890,94.079269 73.199890,78.731972 
	C77.182571,78.731972 80.960785,78.731972 85.244659,78.707481 
z"/>
</svg>