<svg version="1.1" id="Layer_1" xmlns="http://www.w3.org/2000/svg" xmlns:xlink="http://www.w3.org/1999/xlink" x="0px" y="0px"
	 width="100%" viewBox="0 0 2048 2048" enable-background="new 0 0 2048 2048" xml:space="preserve">
<path fill="#040305" opacity="1.000000" stroke="none" 
	d="
M1907.000000,2049.000000 
	C1271.333374,2049.000000 636.166687,2049.000000 1.000000,2049.000000 
	C1.000000,1366.333374 1.000000,683.666687 1.000000,1.000000 
	C683.666687,1.000000 1366.333374,1.000000 2049.000000,1.000000 
	C2049.000000,683.666687 2049.000000,1366.333374 2049.000000,2049.000000 
	C2001.833374,2049.000000 1954.666626,2049.000000 1907.000000,2049.000000 
M242.803619,959.739746 
	C243.158783,960.086792 243.591751,960.382751 243.858078,960.788147 
	C265.037354,993.034424 286.181030,1025.304199 307.383789,1057.535034 
	C314.307098,1068.059204 321.297150,1078.542725 328.492584,1088.880615 
	C329.408936,1090.197021 331.740326,1091.142212 333.448853,1091.194458 
	C344.932983,1091.546509 356.425873,1091.620972 367.916199,1091.761230 
	C371.349121,1091.803223 374.782959,1091.767822 378.040100,1091.767822 
	C378.040100,1027.618896 378.040100,964.129272 378.040100,900.566406 
	C365.152222,900.566406 352.905121,900.566406 339.685364,900.566406 
	C339.685364,945.470764 339.685364,990.028137 339.685364,1035.839233 
	C333.984161,1027.241943 329.166931,1019.981201 324.353241,1012.718140 
	C308.911896,989.419434 293.467438,966.122864 278.033020,942.819580 
	C269.672394,930.196472 261.070038,917.720947 253.150330,904.826538 
	C251.006622,901.336304 249.104492,900.176758 245.221313,900.242126 
	C233.399887,900.441467 221.571609,900.208069 209.745987,900.209106 
	C207.921570,900.209290 206.097168,900.556580 203.864853,900.785156 
	C212.143143,913.293091 220.011765,925.020630 227.704071,936.862671 
	C232.638962,944.459900 237.314148,952.225769 241.287140,960.467224 
	C229.333130,960.467224 217.379120,960.467224 205.059723,960.467224 
	C204.920258,963.294067 204.769226,964.919128 204.770309,966.544067 
	C204.797516,1006.867126 204.867966,1047.190186 204.827591,1087.513306 
	C204.824493,1090.607788 205.995148,1091.637939 208.916641,1091.653198 
	C218.413498,1091.702637 227.921494,1091.643799 237.401215,1092.112305 
	C242.279633,1092.353516 243.316132,1090.306763 243.284180,1085.991699 
	C243.174408,1071.162476 243.514740,1056.329346 243.352097,1041.501343 
	C243.053741,1014.297668 242.519394,987.096680 242.803619,959.739746 
M763.499756,1091.665527 
	C774.828552,1091.743286 786.158752,1091.744995 797.485168,1091.953369 
	C800.259338,1092.004395 801.511780,1091.304565 802.285339,1088.386597 
	C807.322449,1069.384033 812.570374,1050.436646 817.842041,1031.497070 
	C821.337708,1018.937744 825.116577,1006.456360 828.522156,993.873352 
	C830.724304,985.736572 832.370056,977.450684 834.465088,969.282898 
	C837.224548,958.525269 840.180359,947.817993 843.201965,936.527405 
	C833.287048,936.527405 823.859741,936.498718 814.432617,936.535095 
	C803.650269,936.576721 803.552979,936.574463 800.624084,947.026001 
	C795.507996,965.282532 790.399536,983.543030 785.523560,1001.864563 
	C781.157715,1018.269287 777.019226,1034.736450 772.988403,1051.227051 
	C772.052917,1055.054443 769.084534,1054.739380 766.767761,1054.519531 
	C765.343872,1054.384521 763.581970,1052.334595 762.925232,1050.749634 
	C761.621094,1047.602173 761.002747,1044.173950 760.054321,1040.875244 
	C755.645874,1025.541260 751.207947,1010.215942 746.806335,994.880127 
	C741.572571,976.645020 736.296875,958.421448 731.210449,940.145203 
	C730.320374,936.947021 728.832397,936.099304 725.583252,936.193542 
	C715.761719,936.478577 705.927979,936.368652 696.098999,936.361206 
	C683.814636,936.351929 683.665649,936.286072 680.269897,947.867310 
	C670.675598,980.588928 661.002319,1013.290771 651.907104,1046.151733 
	C650.354004,1051.763062 649.667847,1056.205078 642.533875,1054.838379 
	C642.212585,1054.776855 641.909668,1054.619629 641.906860,1054.618530 
	C631.388367,1015.307495 620.919373,976.181213 610.358643,936.712219 
	C597.184570,936.712219 584.155518,936.712219 570.739014,936.712219 
	C576.146179,957.409302 581.379333,977.640625 586.722046,997.843079 
	C594.460510,1027.104004 602.331421,1056.330200 609.998840,1085.609741 
	C611.023621,1089.522827 612.542969,1091.534912 617.014160,1091.512085 
	C636.504395,1091.412476 655.996948,1091.576172 675.486877,1091.797241 
	C678.835693,1091.835083 680.061523,1090.380249 680.841614,1087.361328 
	C683.556946,1076.852783 686.415710,1066.378174 689.415894,1055.947144 
	C693.470581,1041.849243 697.746643,1027.815186 701.839844,1013.728088 
	C703.046692,1009.574646 703.956360,1005.334900 705.002197,1001.134705 
	C705.562439,1001.064270 706.122620,1000.993774 706.682861,1000.923340 
	C708.217957,1004.271667 710.203247,1007.491089 711.206421,1010.991882 
	C714.631714,1022.944946 717.616394,1035.023438 720.948914,1047.004028 
	C724.546570,1059.937988 728.398865,1072.800903 732.020447,1085.728271 
	C732.920776,1088.942261 734.295288,1091.137085 738.029846,1091.178101 
	C746.187195,1091.267578 754.343140,1091.493896 763.499756,1091.665527 
M1488.403442,938.074097 
	C1464.343262,929.972229 1426.339233,936.308594 1407.286865,968.525574 
	C1394.243896,990.580688 1391.376099,1013.920837 1398.213501,1038.136963 
	C1403.794922,1057.904053 1414.786377,1074.147827 1433.472290,1084.511475 
	C1459.608032,1099.006958 1491.133179,1095.637207 1513.125854,1075.477539 
	C1513.503906,1075.130859 1514.259033,1075.195679 1515.123657,1075.005859 
	C1515.123657,1080.449829 1515.123657,1085.565186 1515.123657,1091.046021 
	C1527.922363,1091.046021 1540.463379,1091.046021 1553.165283,1091.046021 
	C1553.165283,1027.404297 1553.165283,964.170471 1553.165283,900.868164 
	C1540.162231,900.868164 1527.607056,900.868164 1514.861084,900.868164 
	C1514.861084,918.374695 1514.861084,935.440063 1514.861084,951.662048 
	C1506.369629,947.266846 1497.756104,942.808350 1488.403442,938.074097 
M506.495636,937.067078 
	C494.051514,936.695435 481.569672,935.550720 469.173126,936.154907 
	C454.852844,936.852905 441.301727,941.182373 429.783478,950.197388 
	C416.884277,960.293396 409.618652,973.844666 406.703247,989.811523 
	C402.568420,1012.456848 402.558380,1034.778442 412.685394,1056.119995 
	C421.234680,1074.136597 435.781189,1084.948242 454.746918,1089.961914 
	C470.790466,1094.203247 486.988434,1093.404297 503.351624,1091.412109 
	C519.783752,1089.411499 533.674133,1083.412598 544.606750,1070.703735 
	C552.405579,1061.637695 558.966003,1052.144897 559.821655,1039.233643 
	C547.058533,1039.233643 534.584106,1039.129517 522.116455,1039.374023 
	C520.664917,1039.402466 519.153625,1041.251953 517.841370,1042.445557 
	C515.498352,1044.576782 513.623718,1047.441406 510.961212,1048.964844 
	C498.953217,1055.835571 485.724396,1054.820923 472.535339,1054.676758 
	C458.901459,1054.527710 450.838593,1046.835083 444.717468,1035.988403 
	C443.249573,1033.387085 442.292603,1030.497681 440.725098,1026.872070 
	C444.162415,1026.872070 446.311035,1026.871704 448.459656,1026.872314 
	C479.116302,1026.880493 509.772980,1026.890137 540.429626,1026.895508 
	C546.427368,1026.896484 552.425537,1026.833740 558.422668,1026.891602 
	C561.336975,1026.919678 562.558777,1025.845703 562.399048,1022.731567 
	C561.998108,1014.915649 562.691040,1006.954529 561.450928,999.293518 
	C559.925110,989.867615 558.225342,980.058044 554.226196,971.527527 
	C545.028809,951.908447 528.238281,941.450745 506.495636,937.067078 
M1315.381592,1085.885864 
	C1320.204834,1082.271606 1325.027954,1078.657471 1330.816162,1074.320190 
	C1330.816162,1080.574707 1330.816162,1085.896118 1330.816162,1091.525391 
	C1344.062256,1091.525391 1356.499756,1091.525391 1369.051758,1091.525391 
	C1369.051758,1039.801147 1369.051758,988.277771 1369.051758,936.733276 
	C1356.099731,936.733276 1343.679077,936.733276 1330.830078,936.733276 
	C1330.830078,942.333801 1330.830078,947.545044 1330.830078,952.756226 
	C1328.019043,951.395081 1326.637207,948.926086 1324.533447,947.617859 
	C1307.057495,936.750000 1288.290283,931.908569 1267.781250,936.518494 
	C1239.360474,942.906738 1222.392700,961.938232 1214.342163,988.529175 
	C1205.225586,1018.641174 1211.656372,1046.516357 1232.009888,1070.667236 
	C1253.333862,1095.969971 1291.337646,1098.472656 1315.381592,1085.885864 
M1666.276123,954.776428 
	C1655.118896,966.539429 1647.411865,980.546326 1644.537476,996.211304 
	C1639.770752,1022.189331 1645.234985,1046.142090 1661.709351,1067.604980 
	C1684.043213,1096.701904 1727.030762,1099.169189 1749.500122,1084.559570 
	C1754.018921,1081.621460 1758.466431,1078.573853 1763.266602,1075.362793 
	C1763.266602,1080.866211 1763.266602,1085.899536 1763.266602,1091.786255 
	C1774.375732,1091.786255 1785.179932,1091.575562 1795.969360,1091.883911 
	C1800.668457,1092.018311 1801.781250,1090.306641 1801.757935,1085.878540 
	C1801.606445,1056.901978 1801.697998,1027.923950 1801.725586,998.946472 
	C1801.743774,979.794983 1801.685303,960.642395 1801.901367,941.492981 
	C1801.948120,937.342346 1800.677368,936.074036 1796.520264,936.198059 
	C1786.704224,936.490906 1776.873657,936.275146 1767.049194,936.318176 
	C1765.788330,936.323669 1764.528931,936.644958 1763.324219,936.812317 
	C1763.324219,942.391113 1763.324219,947.559082 1763.324219,953.042236 
	C1729.297485,925.020325 1689.867310,932.359070 1666.276123,954.776428 
M1003.897644,1042.533203 
	C1004.496216,1027.817993 998.693115,1016.205383 986.448303,1008.158691 
	C981.915833,1005.180237 976.850159,1002.654785 971.674438,1001.094849 
	C963.250916,998.555908 954.556030,996.893188 945.940674,995.021362 
	C936.020020,992.865967 926.055908,990.911072 916.124878,988.802185 
	C914.508972,988.458984 912.882446,987.938782 911.406982,987.206055 
	C907.688599,985.359314 904.138000,983.029541 905.188477,978.155945 
	C906.143372,973.725342 909.582520,971.416077 913.948730,971.349609 
	C926.256714,971.162231 938.569763,971.218079 950.879517,971.322144 
	C952.834045,971.338623 954.783447,972.095703 956.733154,972.519836 
	C961.358276,973.525940 964.617981,975.724731 964.861572,981.037170 
	C965.029785,984.707764 967.280029,986.065674 970.888367,986.030029 
	C980.214172,985.937744 989.542053,986.073547 998.868958,986.056458 
	C999.948364,986.054443 1001.027161,985.663574 1001.901794,985.492920 
	C1002.151001,984.792419 1002.389587,984.465210 1002.351624,984.174072 
	C1002.029602,981.702759 1001.618896,979.242798 1001.306030,976.770447 
	C998.839050,957.272522 987.640991,944.566956 969.281921,939.388916 
	C945.267517,932.615906 920.812744,933.286438 896.707458,939.706543 
	C881.316284,943.805725 872.335876,954.032776 870.357971,970.037109 
	C868.932983,981.567505 868.954407,992.962524 875.234680,1003.307068 
	C880.287720,1011.630249 887.874756,1017.349976 897.040466,1019.871338 
	C911.294373,1023.792542 925.848328,1026.623779 940.277283,1029.907349 
	C947.246765,1031.493286 954.245056,1032.960327 961.184387,1034.667969 
	C965.325439,1035.686890 967.863708,1038.622437 968.224548,1042.795532 
	C968.571106,1046.803955 967.469238,1050.467529 962.969238,1051.848145 
	C959.975098,1052.766846 956.954468,1054.217041 953.921326,1054.281494 
	C941.938965,1054.536499 929.934937,1054.655884 917.962097,1054.208130 
	C908.220093,1053.843628 906.532654,1051.840576 904.849182,1042.010254 
	C904.658203,1040.895142 904.241150,1039.818726 904.023865,1039.057251 
	C893.403015,1039.057251 883.103271,1038.942383 872.813538,1039.212158 
	C871.612366,1039.243652 869.533813,1041.328003 869.436096,1042.583374 
	C868.051453,1060.374756 882.163025,1082.444824 898.989319,1087.763794 
	C923.997070,1095.669067 949.463379,1094.882812 974.435486,1088.166992 
	C994.001526,1082.905151 1003.927124,1066.498169 1003.897644,1042.533203 
M1084.786133,1051.197266 
	C1081.475708,1048.503052 1077.463867,1046.335083 1074.978149,1043.021973 
	C1065.098633,1029.854370 1063.311401,1014.765442 1067.449097,999.324402 
	C1070.514771,987.884460 1075.784546,977.372437 1088.983521,974.078979 
	C1103.913696,970.353516 1118.692139,971.276550 1133.335083,975.522644 
	C1134.784668,975.942993 1136.083862,977.229248 1137.210205,978.356140 
	C1142.151611,983.299072 1147.262695,987.043274 1155.056885,986.305725 
	C1162.815918,985.571472 1170.699219,986.158569 1178.528076,986.155029 
	C1185.111816,986.152100 1185.848877,985.261047 1183.521118,978.923706 
	C1177.365723,962.165894 1166.234131,949.595886 1149.841309,942.663086 
	C1124.680298,932.022095 1098.811768,932.648560 1073.145142,940.780273 
	C1052.287231,947.388367 1039.242310,962.191833 1033.918823,983.112671 
	C1028.608032,1003.983398 1028.418213,1024.926392 1034.597900,1045.999268 
	C1041.559448,1069.737915 1057.249390,1083.630615 1080.414185,1089.972168 
	C1095.946045,1094.224121 1111.617432,1093.190186 1127.507202,1091.608521 
	C1148.194092,1089.549316 1164.025879,1080.228516 1175.920288,1063.597412 
	C1181.096680,1056.359619 1184.188354,1048.322021 1185.095581,1039.003052 
	C1173.733765,1039.003052 1162.942505,1039.025024 1152.151489,1038.991577 
	C1148.178467,1038.979248 1144.058716,1038.193604 1142.917114,1043.929077 
	C1142.637451,1045.333862 1140.467041,1046.575684 1138.924927,1047.483154 
	C1122.794800,1056.976440 1105.578735,1056.372559 1088.093506,1052.680420 
	C1087.050049,1052.460083 1086.205322,1051.297485 1085.268188,1050.573242 
	C1085.415405,1050.430908 1085.562500,1050.288452 1085.709595,1050.145996 
	C1085.604126,1050.435181 1085.498779,1050.724365 1084.786133,1051.197266 
M1578.974243,942.672546 
	C1578.990356,987.784363 1579.009399,1032.896118 1579.020508,1078.007935 
	C1579.023682,1091.093018 1579.012085,1091.160645 1591.898071,1091.363037 
	C1600.162109,1091.492798 1608.430054,1091.387329 1616.902222,1091.387329 
	C1617.035034,1090.402222 1617.232422,1089.607178 1617.235840,1088.811401 
	C1617.300537,1073.996582 1617.334229,1059.181641 1617.390381,1044.366821 
	C1617.519775,1010.242310 1617.628052,976.117676 1617.839966,941.993652 
	C1617.859985,938.762939 1617.712524,936.554626 1613.491943,936.751465 
	C1608.515625,936.983643 1603.511475,936.559570 1598.518555,936.516846 
	C1592.101562,936.462036 1585.683838,936.503540 1578.972900,936.503540 
	C1578.972900,938.762634 1578.972900,940.244385 1578.974243,942.672546 
M1606.453125,924.718933 
	C1609.902954,924.718933 1613.352905,924.718933 1617.320312,924.718933 
	C1617.320312,916.618164 1617.320312,909.060791 1617.320312,901.106934 
	C1604.696899,901.106934 1592.009033,901.106934 1579.318237,901.106934 
	C1579.318237,908.890442 1579.318237,916.312744 1579.318237,924.716492 
	C1588.237305,924.716492 1596.851440,924.716492 1606.453125,924.718933 
z"/>
<path fill="#FBFCFC" opacity="1.000000" stroke="none" 
	d="
M762.999695,1091.665039 
	C754.343140,1091.493896 746.187195,1091.267578 738.029846,1091.178101 
	C734.295288,1091.137085 732.920776,1088.942261 732.020447,1085.728271 
	C728.398865,1072.800903 724.546570,1059.937988 720.948914,1047.004028 
	C717.616394,1035.023438 714.631714,1022.944946 711.206421,1010.991882 
	C710.203247,1007.491089 708.217957,1004.271667 706.682861,1000.923340 
	C706.122620,1000.993774 705.562439,1001.064270 705.002197,1001.134705 
	C703.956360,1005.334900 703.046692,1009.574646 701.839844,1013.728088 
	C697.746643,1027.815186 693.470581,1041.849243 689.415894,1055.947144 
	C686.415710,1066.378174 683.556946,1076.852783 680.841614,1087.361328 
	C680.061523,1090.380249 678.835693,1091.835083 675.486877,1091.797241 
	C655.996948,1091.576172 636.504395,1091.412476 617.014160,1091.512085 
	C612.542969,1091.534912 611.023621,1089.522827 609.998840,1085.609741 
	C602.331421,1056.330200 594.460510,1027.104004 586.722046,997.843079 
	C581.379333,977.640625 576.146179,957.409302 570.739014,936.712219 
	C584.155518,936.712219 597.184570,936.712219 610.358643,936.712219 
	C620.919373,976.181213 631.388367,1015.307495 641.906860,1054.618530 
	C641.909668,1054.619629 642.212585,1054.776855 642.533875,1054.838379 
	C649.667847,1056.205078 650.354004,1051.763062 651.907104,1046.151733 
	C661.002319,1013.290771 670.675598,980.588928 680.269897,947.867310 
	C683.665649,936.286072 683.814636,936.351929 696.098999,936.361206 
	C705.927979,936.368652 715.761719,936.478577 725.583252,936.193542 
	C728.832397,936.099304 730.320374,936.947021 731.210449,940.145203 
	C736.296875,958.421448 741.572571,976.645020 746.806335,994.880127 
	C751.207947,1010.215942 755.645874,1025.541260 760.054321,1040.875244 
	C761.002747,1044.173950 761.621094,1047.602173 762.925232,1050.749634 
	C763.581970,1052.334595 765.343872,1054.384521 766.767761,1054.519531 
	C769.084534,1054.739380 772.052917,1055.054443 772.988403,1051.227051 
	C777.019226,1034.736450 781.157715,1018.269287 785.523560,1001.864563 
	C790.399536,983.543030 795.507996,965.282532 800.624084,947.026001 
	C803.552979,936.574463 803.650269,936.576721 814.432617,936.535095 
	C823.859741,936.498718 833.287048,936.527405 843.201965,936.527405 
	C840.180359,947.817993 837.224548,958.525269 834.465088,969.282898 
	C832.370056,977.450684 830.724304,985.736572 828.522156,993.873352 
	C825.116577,1006.456360 821.337708,1018.937744 817.842041,1031.497070 
	C812.570374,1050.436646 807.322449,1069.384033 802.285339,1088.386597 
	C801.511780,1091.304565 800.259338,1092.004395 797.485168,1091.953369 
	C786.158752,1091.744995 774.828552,1091.743286 762.999695,1091.665039 
z"/>
<path fill="#FDFDFD" opacity="1.000000" stroke="none" 
	d="
M1488.772949,938.211975 
	C1497.756104,942.808350 1506.369629,947.266846 1514.861084,951.662048 
	C1514.861084,935.440063 1514.861084,918.374695 1514.861084,900.868164 
	C1527.607056,900.868164 1540.162231,900.868164 1553.165283,900.868164 
	C1553.165283,964.170471 1553.165283,1027.404297 1553.165283,1091.046021 
	C1540.463379,1091.046021 1527.922363,1091.046021 1515.123657,1091.046021 
	C1515.123657,1085.565186 1515.123657,1080.449829 1515.123657,1075.005859 
	C1514.259033,1075.195679 1513.503906,1075.130859 1513.125854,1075.477539 
	C1491.133179,1095.637207 1459.608032,1099.006958 1433.472290,1084.511475 
	C1414.786377,1074.147827 1403.794922,1057.904053 1398.213501,1038.136963 
	C1391.376099,1013.920837 1394.243896,990.580688 1407.286865,968.525574 
	C1426.339233,936.308594 1464.343262,929.972229 1488.772949,938.211975 
M1432.331055,1028.027222 
	C1433.272095,1030.513550 1434.075073,1033.063110 1435.178589,1035.474976 
	C1439.388916,1044.676270 1445.617554,1052.631348 1456.046143,1053.575195 
	C1468.030273,1054.659668 1480.265015,1054.200562 1492.293945,1053.221069 
	C1504.353882,1052.239014 1511.530762,1043.378052 1513.178223,1032.737915 
	C1515.137329,1020.084473 1514.996704,1006.789917 1513.537109,994.028076 
	C1512.463013,984.636719 1506.110962,976.427307 1496.043823,974.618103 
	C1485.668823,972.753662 1474.920288,972.270752 1464.346436,972.369934 
	C1448.028442,972.522949 1438.183838,981.641174 1432.921509,996.798889 
	C1429.377441,1007.007324 1429.934692,1017.034851 1432.331055,1028.027222 
z"/>
<path fill="#FCFCFC" opacity="1.000000" stroke="none" 
	d="
M506.914886,937.131592 
	C528.238281,941.450745 545.028809,951.908447 554.226196,971.527527 
	C558.225342,980.058044 559.925110,989.867615 561.450928,999.293518 
	C562.691040,1006.954529 561.998108,1014.915649 562.399048,1022.731567 
	C562.558777,1025.845703 561.336975,1026.919678 558.422668,1026.891602 
	C552.425537,1026.833740 546.427368,1026.896484 540.429626,1026.895508 
	C509.772980,1026.890137 479.116302,1026.880493 448.459656,1026.872314 
	C446.311035,1026.871704 444.162415,1026.872070 440.725098,1026.872070 
	C442.292603,1030.497681 443.249573,1033.387085 444.717468,1035.988403 
	C450.838593,1046.835083 458.901459,1054.527710 472.535339,1054.676758 
	C485.724396,1054.820923 498.953217,1055.835571 510.961212,1048.964844 
	C513.623718,1047.441406 515.498352,1044.576782 517.841370,1042.445557 
	C519.153625,1041.251953 520.664917,1039.402466 522.116455,1039.374023 
	C534.584106,1039.129517 547.058533,1039.233643 559.821655,1039.233643 
	C558.966003,1052.144897 552.405579,1061.637695 544.606750,1070.703735 
	C533.674133,1083.412598 519.783752,1089.411499 503.351624,1091.412109 
	C486.988434,1093.404297 470.790466,1094.203247 454.746918,1089.961914 
	C435.781189,1084.948242 421.234680,1074.136597 412.685394,1056.119995 
	C402.558380,1034.778442 402.568420,1012.456848 406.703247,989.811523 
	C409.618652,973.844666 416.884277,960.293396 429.783478,950.197388 
	C441.301727,941.182373 454.852844,936.852905 469.173126,936.154907 
	C481.569672,935.550720 494.051514,936.695435 506.914886,937.131592 
M496.880280,972.510742 
	C490.394836,972.276001 483.909332,972.043701 477.424011,971.805969 
	C461.083130,971.206970 449.858429,978.475708 443.542175,993.991089 
	C470.416595,993.991089 497.046112,993.991089 523.966003,993.991089 
	C517.980164,982.995422 511.686279,973.112488 496.880280,972.510742 
z"/>
<path fill="#FDFDFD" opacity="1.000000" stroke="none" 
	d="
M1315.054443,1086.054932 
	C1291.337646,1098.472656 1253.333862,1095.969971 1232.009888,1070.667236 
	C1211.656372,1046.516357 1205.225586,1018.641174 1214.342163,988.529175 
	C1222.392700,961.938232 1239.360474,942.906738 1267.781250,936.518494 
	C1288.290283,931.908569 1307.057495,936.750000 1324.533447,947.617859 
	C1326.637207,948.926086 1328.019043,951.395081 1330.830078,952.756226 
	C1330.830078,947.545044 1330.830078,942.333801 1330.830078,936.733276 
	C1343.679077,936.733276 1356.099731,936.733276 1369.051758,936.733276 
	C1369.051758,988.277771 1369.051758,1039.801147 1369.051758,1091.525391 
	C1356.499756,1091.525391 1344.062256,1091.525391 1330.816162,1091.525391 
	C1330.816162,1085.896118 1330.816162,1080.574707 1330.816162,1074.320190 
	C1325.027954,1078.657471 1320.204834,1082.271606 1315.054443,1086.054932 
M1247.917847,1026.271729 
	C1248.752075,1028.613159 1249.496582,1030.991333 1250.435425,1033.289917 
	C1255.756836,1046.318359 1265.033936,1054.184937 1279.483521,1054.549805 
	C1288.111206,1054.767700 1296.819336,1054.867920 1305.380371,1053.967163 
	C1319.165894,1052.516846 1328.782593,1042.575195 1330.040649,1028.697876 
	C1330.849243,1019.778259 1331.105103,1010.746399 1330.754150,1001.798340 
	C1330.212646,987.992432 1322.308838,976.968872 1311.487793,974.345276 
	C1298.394409,971.170654 1285.191162,970.941650 1271.906616,973.498718 
	C1263.027344,975.207947 1257.119507,980.444336 1252.958740,988.126831 
	C1246.571045,999.920715 1245.791260,1012.487488 1247.917847,1026.271729 
z"/>
<path fill="#FCFCFC" opacity="1.000000" stroke="none" 
	d="
M1666.527222,954.530273 
	C1689.867310,932.359070 1729.297485,925.020325 1763.324219,953.042236 
	C1763.324219,947.559082 1763.324219,942.391113 1763.324219,936.812317 
	C1764.528931,936.644958 1765.788330,936.323669 1767.049194,936.318176 
	C1776.873657,936.275146 1786.704224,936.490906 1796.520264,936.198059 
	C1800.677368,936.074036 1801.948120,937.342346 1801.901367,941.492981 
	C1801.685303,960.642395 1801.743774,979.794983 1801.725586,998.946472 
	C1801.697998,1027.923950 1801.606445,1056.901978 1801.757935,1085.878540 
	C1801.781250,1090.306641 1800.668457,1092.018311 1795.969360,1091.883911 
	C1785.179932,1091.575562 1774.375732,1091.786255 1763.266602,1091.786255 
	C1763.266602,1085.899536 1763.266602,1080.866211 1763.266602,1075.362793 
	C1758.466431,1078.573853 1754.018921,1081.621460 1749.500122,1084.559570 
	C1727.030762,1099.169189 1684.043213,1096.701904 1661.709351,1067.604980 
	C1645.234985,1046.142090 1639.770752,1022.189331 1644.537476,996.211304 
	C1647.411865,980.546326 1655.118896,966.539429 1666.527222,954.530273 
M1690.381836,980.877869 
	C1678.927979,993.860718 1676.921753,1009.440796 1680.020630,1025.427612 
	C1683.020874,1040.906616 1693.573486,1054.301270 1711.780029,1054.634399 
	C1720.079956,1054.786255 1728.432739,1054.776367 1736.688110,1054.028809 
	C1751.456299,1052.691650 1761.856079,1042.051392 1762.718384,1027.293823 
	C1763.280029,1017.679810 1763.230103,1007.986023 1762.734375,998.365173 
	C1762.088379,985.831055 1753.042358,975.535156 1740.623413,973.715515 
	C1731.797485,972.422363 1722.712769,971.836121 1713.824097,972.343628 
	C1705.676025,972.808838 1697.165894,973.846558 1690.381836,980.877869 
z"/>
<path fill="#FCFCFC" opacity="1.000000" stroke="none" 
	d="
M242.105774,959.916077 
	C237.314148,952.225769 232.638962,944.459900 227.704071,936.862671 
	C220.011765,925.020630 212.143143,913.293091 203.864853,900.785156 
	C206.097168,900.556580 207.921570,900.209290 209.745987,900.209106 
	C221.571609,900.208069 233.399887,900.441467 245.221313,900.242126 
	C249.104492,900.176758 251.006622,901.336304 253.150330,904.826538 
	C261.070038,917.720947 269.672394,930.196472 278.033020,942.819580 
	C293.467438,966.122864 308.911896,989.419434 324.353241,1012.718140 
	C329.166931,1019.981201 333.984161,1027.241943 339.685364,1035.839233 
	C339.685364,990.028137 339.685364,945.470764 339.685364,900.566406 
	C352.905121,900.566406 365.152222,900.566406 378.040100,900.566406 
	C378.040100,964.129272 378.040100,1027.618896 378.040100,1091.767822 
	C374.782959,1091.767822 371.349121,1091.803223 367.916199,1091.761230 
	C356.425873,1091.620972 344.932983,1091.546509 333.448853,1091.194458 
	C331.740326,1091.142212 329.408936,1090.197021 328.492584,1088.880615 
	C321.297150,1078.542725 314.307098,1068.059204 307.383789,1057.535034 
	C286.181030,1025.304199 265.037354,993.034424 243.858078,960.788147 
	C243.591751,960.382751 243.158783,960.086792 242.413910,959.858826 
	C242.024185,959.977905 242.105774,959.916077 242.105774,959.916077 
z"/>
<path fill="#FBFCFC" opacity="1.000000" stroke="none" 
	d="
M1003.906372,1043.018066 
	C1003.927124,1066.498169 994.001526,1082.905151 974.435486,1088.166992 
	C949.463379,1094.882812 923.997070,1095.669067 898.989319,1087.763794 
	C882.163025,1082.444824 868.051453,1060.374756 869.436096,1042.583374 
	C869.533813,1041.328003 871.612366,1039.243652 872.813538,1039.212158 
	C883.103271,1038.942383 893.403015,1039.057251 904.023865,1039.057251 
	C904.241150,1039.818726 904.658203,1040.895142 904.849182,1042.010254 
	C906.532654,1051.840576 908.220093,1053.843628 917.962097,1054.208130 
	C929.934937,1054.655884 941.938965,1054.536499 953.921326,1054.281494 
	C956.954468,1054.217041 959.975098,1052.766846 962.969238,1051.848145 
	C967.469238,1050.467529 968.571106,1046.803955 968.224548,1042.795532 
	C967.863708,1038.622437 965.325439,1035.686890 961.184387,1034.667969 
	C954.245056,1032.960327 947.246765,1031.493286 940.277283,1029.907349 
	C925.848328,1026.623779 911.294373,1023.792542 897.040466,1019.871338 
	C887.874756,1017.349976 880.287720,1011.630249 875.234680,1003.307068 
	C868.954407,992.962524 868.932983,981.567505 870.357971,970.037109 
	C872.335876,954.032776 881.316284,943.805725 896.707458,939.706543 
	C920.812744,933.286438 945.267517,932.615906 969.281921,939.388916 
	C987.640991,944.566956 998.839050,957.272522 1001.306030,976.770447 
	C1001.618896,979.242798 1002.029602,981.702759 1002.351624,984.174072 
	C1002.389587,984.465210 1002.151001,984.792419 1001.901794,985.492920 
	C1001.027161,985.663574 999.948364,986.054443 998.868958,986.056458 
	C989.542053,986.073547 980.214172,985.937744 970.888367,986.030029 
	C967.280029,986.065674 965.029785,984.707764 964.861572,981.037170 
	C964.617981,975.724731 961.358276,973.525940 956.733154,972.519836 
	C954.783447,972.095703 952.834045,971.338623 950.879517,971.322144 
	C938.569763,971.218079 926.256714,971.162231 913.948730,971.349609 
	C909.582520,971.416077 906.143372,973.725342 905.188477,978.155945 
	C904.138000,983.029541 907.688599,985.359314 911.406982,987.206055 
	C912.882446,987.938782 914.508972,988.458984 916.124878,988.802185 
	C926.055908,990.911072 936.020020,992.865967 945.940674,995.021362 
	C954.556030,996.893188 963.250916,998.555908 971.674438,1001.094849 
	C976.850159,1002.654785 981.915833,1005.180237 986.448303,1008.158691 
	C998.693115,1016.205383 1004.496216,1027.817993 1003.906372,1043.018066 
z"/>
<path fill="#FCFCFC" opacity="1.000000" stroke="none" 
	d="
M1085.089844,1051.105469 
	C1085.498779,1050.724365 1085.604126,1050.435181 1085.709595,1050.145996 
	C1085.562500,1050.288452 1085.415405,1050.430908 1085.268188,1050.573242 
	C1086.205322,1051.297485 1087.050049,1052.460083 1088.093506,1052.680420 
	C1105.578735,1056.372559 1122.794800,1056.976440 1138.924927,1047.483154 
	C1140.467041,1046.575684 1142.637451,1045.333862 1142.917114,1043.929077 
	C1144.058716,1038.193604 1148.178467,1038.979248 1152.151489,1038.991577 
	C1162.942505,1039.025024 1173.733765,1039.003052 1185.095581,1039.003052 
	C1184.188354,1048.322021 1181.096680,1056.359619 1175.920288,1063.597412 
	C1164.025879,1080.228516 1148.194092,1089.549316 1127.507202,1091.608521 
	C1111.617432,1093.190186 1095.946045,1094.224121 1080.414185,1089.972168 
	C1057.249390,1083.630615 1041.559448,1069.737915 1034.597900,1045.999268 
	C1028.418213,1024.926392 1028.608032,1003.983398 1033.918823,983.112671 
	C1039.242310,962.191833 1052.287231,947.388367 1073.145142,940.780273 
	C1098.811768,932.648560 1124.680298,932.022095 1149.841309,942.663086 
	C1166.234131,949.595886 1177.365723,962.165894 1183.521118,978.923706 
	C1185.848877,985.261047 1185.111816,986.152100 1178.528076,986.155029 
	C1170.699219,986.158569 1162.815918,985.571472 1155.056885,986.305725 
	C1147.262695,987.043274 1142.151611,983.299072 1137.210205,978.356140 
	C1136.083862,977.229248 1134.784668,975.942993 1133.335083,975.522644 
	C1118.692139,971.276550 1103.913696,970.353516 1088.983521,974.078979 
	C1075.784546,977.372437 1070.514771,987.884460 1067.449097,999.324402 
	C1063.311401,1014.765442 1065.098633,1029.854370 1074.978149,1043.021973 
	C1077.463867,1046.335083 1081.475708,1048.503052 1085.089844,1051.105469 
z"/>
<path fill="#FCFCFC" opacity="1.000000" stroke="none" 
	d="
M1578.973633,942.199341 
	C1578.972900,940.244385 1578.972900,938.762634 1578.972900,936.503540 
	C1585.683838,936.503540 1592.101562,936.462036 1598.518555,936.516846 
	C1603.511475,936.559570 1608.515625,936.983643 1613.491943,936.751465 
	C1617.712524,936.554626 1617.859985,938.762939 1617.839966,941.993652 
	C1617.628052,976.117676 1617.519775,1010.242310 1617.390381,1044.366821 
	C1617.334229,1059.181641 1617.300537,1073.996582 1617.235840,1088.811401 
	C1617.232422,1089.607178 1617.035034,1090.402222 1616.902222,1091.387329 
	C1608.430054,1091.387329 1600.162109,1091.492798 1591.898071,1091.363037 
	C1579.012085,1091.160645 1579.023682,1091.093018 1579.020508,1078.007935 
	C1579.009399,1032.896118 1578.990356,987.784363 1578.973633,942.199341 
z"/>
<path fill="#248DF9" opacity="1.000000" stroke="none" 
	d="
M242.053802,959.936279 
	C242.519394,987.096680 243.053741,1014.297668 243.352097,1041.501343 
	C243.514740,1056.329346 243.174408,1071.162476 243.284180,1085.991699 
	C243.316132,1090.306763 242.279633,1092.353516 237.401215,1092.112305 
	C227.921494,1091.643799 218.413498,1091.702637 208.916641,1091.653198 
	C205.995148,1091.637939 204.824493,1090.607788 204.827591,1087.513306 
	C204.867966,1047.190186 204.797516,1006.867126 204.770309,966.544067 
	C204.769226,964.919128 204.920258,963.294067 205.059723,960.467224 
	C217.379120,960.467224 229.333130,960.467224 241.696457,960.191650 
	C242.105774,959.916077 242.024185,959.977905 242.053802,959.936279 
z"/>
<path fill="#248DF9" opacity="1.000000" stroke="none" 
	d="
M1605.959473,924.717712 
	C1596.851440,924.716492 1588.237305,924.716492 1579.318237,924.716492 
	C1579.318237,916.312744 1579.318237,908.890442 1579.318237,901.106934 
	C1592.009033,901.106934 1604.696899,901.106934 1617.320312,901.106934 
	C1617.320312,909.060791 1617.320312,916.618164 1617.320312,924.718933 
	C1613.352905,924.718933 1609.902954,924.718933 1605.959473,924.717712 
z"/>
<path fill="#040305" opacity="1.000000" stroke="none" 
	d="
M1432.213623,1027.637695 
	C1429.934692,1017.034851 1429.377441,1007.007324 1432.921509,996.798889 
	C1438.183838,981.641174 1448.028442,972.522949 1464.346436,972.369934 
	C1474.920288,972.270752 1485.668823,972.753662 1496.043823,974.618103 
	C1506.110962,976.427307 1512.463013,984.636719 1513.537109,994.028076 
	C1514.996704,1006.789917 1515.137329,1020.084473 1513.178223,1032.737915 
	C1511.530762,1043.378052 1504.353882,1052.239014 1492.293945,1053.221069 
	C1480.265015,1054.200562 1468.030273,1054.659668 1456.046143,1053.575195 
	C1445.617554,1052.631348 1439.388916,1044.676270 1435.178589,1035.474976 
	C1434.075073,1033.063110 1433.272095,1030.513550 1432.213623,1027.637695 
z"/>
<path fill="#040305" opacity="1.000000" stroke="none" 
	d="
M497.322174,972.585693 
	C511.686279,973.112488 517.980164,982.995422 523.966003,993.991089 
	C497.046112,993.991089 470.416595,993.991089 443.542175,993.991089 
	C449.858429,978.475708 461.083130,971.206970 477.424011,971.805969 
	C483.909332,972.043701 490.394836,972.276001 497.322174,972.585693 
z"/>
<path fill="#040305" opacity="1.000000" stroke="none" 
	d="
M1247.828735,1025.856567 
	C1245.791260,1012.487488 1246.571045,999.920715 1252.958740,988.126831 
	C1257.119507,980.444336 1263.027344,975.207947 1271.906616,973.498718 
	C1285.191162,970.941650 1298.394409,971.170654 1311.487793,974.345276 
	C1322.308838,976.968872 1330.212646,987.992432 1330.754150,1001.798340 
	C1331.105103,1010.746399 1330.849243,1019.778259 1330.040649,1028.697876 
	C1328.782593,1042.575195 1319.165894,1052.516846 1305.380371,1053.967163 
	C1296.819336,1054.867920 1288.111206,1054.767700 1279.483521,1054.549805 
	C1265.033936,1054.184937 1255.756836,1046.318359 1250.435425,1033.289917 
	C1249.496582,1030.991333 1248.752075,1028.613159 1247.828735,1025.856567 
z"/>
<path fill="#040305" opacity="1.000000" stroke="none" 
	d="
M1690.614014,980.598694 
	C1697.165894,973.846558 1705.676025,972.808838 1713.824097,972.343628 
	C1722.712769,971.836121 1731.797485,972.422363 1740.623413,973.715515 
	C1753.042358,975.535156 1762.088379,985.831055 1762.734375,998.365173 
	C1763.230103,1007.986023 1763.280029,1017.679810 1762.718384,1027.293823 
	C1761.856079,1042.051392 1751.456299,1052.691650 1736.688110,1054.028809 
	C1728.432739,1054.776367 1720.079956,1054.786255 1711.780029,1054.634399 
	C1693.573486,1054.301270 1683.020874,1040.906616 1680.020630,1025.427612 
	C1676.921753,1009.440796 1678.927979,993.860718 1690.614014,980.598694 
z"/>
</svg>