<?xml version="1.0" encoding="utf-8"?>
<!-- Generator: Adobe Adobe Illustrator 24.2.0, SVG Export Plug-In . SVG Version: 6.00 Build 0)  -->
<svg version="1.1" id="Layer_1" xmlns="http://www.w3.org/2000/svg" xmlns:xlink="http://www.w3.org/1999/xlink" x="0px" y="0px"
	 viewBox="0 0 1728 1296" style="enable-background:new 0 0 1728 1296;" xml:space="preserve">
<style type="text/css">
	.st0{fill:#91ED91;}
	.st1{fill:#9EBB9E;}
	.st2{fill:#A5BBA5;}
	.st3{fill:#90C590;}
</style>
<path class="st0" d="M674.46,560c-19.42-48.71-38.54-96.86-58.01-145.87c3.31-0.36,5.34-0.76,7.37-0.77
	c32.36-0.04,64.72,0.01,97.08-0.08c4.14-0.01,6.74,0.67,8.45,5.32c35.69,97.19,71.85,194.2,107.29,291.48
	c9.74,26.74,17.4,54.24,26.05,81.38c0.61,1.92,1.53,3.74,3.32,8.05c1.96-4.71,3.22-7.14,4-9.72
	c37.54-125.02,87.45-245.6,131.57-368.26c2.29-6.35,5.58-8.46,12.33-8.37c28.85,0.39,57.71,0.17,86.56,0.17c2.64,0,5.29,0,9.23,0
	c-1.06,3.56-1.63,6.07-2.55,8.44c-58.22,149.95-116.52,299.86-174.54,449.88c-3.14,8.12-6.74,11.47-16.05,11.28
	c-35.31-0.7-70.65-0.33-105.97-0.22c-4.68,0.02-7.72-0.59-9.81-5.85C758.91,771.38,716.81,665.98,674.46,560z"/>
<path class="st0" d="M617.38,363.97c-0.48-1.99-1.37-3.98-1.38-5.98c-0.06-114.38-0.05-228.76-0.03-343.14c0-0.8,0.19-1.6,1.43-2.96
	c164.76-0.56,328.38-0.56,492-0.56c0.34,2.35,0.99,4.7,0.99,7.05c0.05,113.05,0.05,226.11,0.02,339.16c0,1.86-0.31,3.73-1.49,5.65
	c-10.69-0.07-20.41-0.75-30.04-0.15c-7.97,0.5-10.45-1.61-10.42-10.11c0.34-96.52,0.23-193.03,0.14-289.55
	c0-3.32-1.06-6.63-1.62-9.95c0,0,0.11,0.05-0.35-0.43c-2.57-0.71-4.69-1.14-6.81-1.14c-131.01-0.03-262.01-0.04-393.02,0.04
	c-2.49,0-4.98,1.1-7.47,1.68c0,0-0.04-0.11-0.49,0.33c-0.68,3.63-1.1,6.83-1.11,10.02c-0.04,96.23-0.12,192.46,0.14,288.69
	c0.02,7.88-1.48,11-10.08,10.47C637.72,362.48,627.53,363.6,617.38,363.97z"/>
<path class="st0" d="M616.98,1284.66c-0.34-2.35-0.99-4.7-0.99-7.05c-0.05-113.05-0.05-226.11-0.02-339.17
	c0-1.86,0.31-3.73,1.49-5.65c10.69,0.07,20.41,0.75,30.04,0.15c7.97-0.5,10.45,1.61,10.42,10.11
	c-0.34,96.52-0.23,193.03-0.14,289.55c0,3.32,1.06,6.63,1.62,9.95c0,0-0.11-0.05,0.35,0.43c2.57,0.71,4.69,1.14,6.81,1.14
	c131.01,0.03,262.01,0.04,393.02-0.04c2.49,0,4.98-1.1,7.47-1.68c0,0,0.04,0.11,0.49-0.33c0.68-3.63,1.1-6.83,1.11-10.02
	c0.04-96.23,0.12-192.46-0.14-288.69c-0.02-7.88,1.48-11,10.08-10.47c10.08,0.63,20.27-0.5,30.42-0.86
	c0.48,1.99,1.37,3.98,1.38,5.98c0.06,114.38,0.05,228.76,0.03,343.14c0,0.8-0.19,1.6-1.43,2.96
	C944.22,1284.67,780.6,1284.67,616.98,1284.66z"/>
<path class="st1" d="M1108.95,10.79c-163.16,0.54-326.78,0.54-491.18,0.54c1.72-0.54,4.22-1.55,6.73-1.55
	c159.2-0.07,318.4-0.07,477.6-0.05C1104.22,9.74,1106.35,10.07,1108.95,10.79z"/>
<path class="st1" d="M617.44,1285.21c163.16-0.54,326.78-0.54,491.18-0.54c-1.72,0.54-4.22,1.55-6.73,1.55
	c-159.2,0.07-318.4,0.07-477.6,0.05C622.16,1286.26,620.03,1285.93,617.44,1285.21z"/>
<path class="st2" d="M660.1,53.55c1.73-0.53,4.22-1.63,6.71-1.63c131.01-0.08,262.01-0.08,393.02-0.04c2.12,0,4.23,0.43,6.79,1.2
	c-92.7,0.48-185.84,0.43-278.97,0.4C745.38,53.45,703.12,53.48,660.1,53.55z"/>
<path class="st2" d="M1066.29,1242.45c-1.73,0.53-4.22,1.63-6.71,1.63c-131.01,0.08-262.01,0.08-393.02,0.04
	c-2.12,0-4.23-0.43-6.79-1.2c92.7-0.48,185.84-0.43,278.97-0.4C981.01,1242.55,1023.27,1242.52,1066.29,1242.45z"/>
<path class="st3" d="M618.11,364.17c9.42-0.56,19.61-1.69,29.69-1.06c8.6,0.54,10.1-2.58,10.08-10.47
	c-0.26-96.23-0.18-192.46-0.14-288.69c0-3.2,0.43-6.39,1.16-10.05c0.51,102.78,0.51,206.02,0.51,310.47
	C645.51,364.37,632.17,364.37,618.11,364.17z"/>
<path class="st3" d="M1067.01,54.2c0.54,2.56,1.59,5.87,1.59,9.19c0.09,96.52,0.19,193.03-0.14,289.55
	c-0.03,8.5,2.45,10.6,10.42,10.11c9.63-0.6,19.35,0.08,29.57,0.56c-13.1,0.36-26.75,0.36-41.41,0.36
	C1067.04,260.76,1067.04,157.86,1067.01,54.2z"/>
<path class="st3" d="M659.37,1241.79c-0.54-2.56-1.59-5.87-1.59-9.19c-0.09-96.52-0.19-193.03,0.14-289.55
	c0.03-8.5-2.45-10.6-10.42-10.11c-9.63,0.6-19.35-0.08-29.57-0.56c13.1-0.36,26.75-0.36,41.41-0.36
	C659.34,1035.24,659.34,1138.14,659.37,1241.79z"/>
<path class="st3" d="M1108.27,931.83c-9.42,0.57-19.61,1.69-29.69,1.06c-8.6-0.54-10.1,2.58-10.08,10.47
	c0.26,96.23,0.18,192.46,0.14,288.69c0,3.2-0.43,6.39-1.16,10.05c-0.51-102.78-0.51-206.02-0.51-310.47
	C1080.87,931.63,1094.21,931.63,1108.27,931.83z"/>
</svg>
