<?xml version="1.0" encoding="utf-8"?>
<!-- Generator: Adobe Adobe Illustrator 24.2.0, SVG Export Plug-In . SVG Version: 6.00 Build 0)  -->
<svg version="1.1" id="Layer_1" xmlns="http://www.w3.org/2000/svg" xmlns:xlink="http://www.w3.org/1999/xlink" x="0px" y="0px"
	 viewBox="0 0 1728 1296" style="enable-background:new 0 0 1728 1296;" xml:space="preserve">
<g>
	<path d="M680.94,415.15c14.58-0.01,28.35,0.12,42.11-0.1c5.12-0.08,7.73,1.97,9.5,6.76c33.73,91.42,67.4,182.86,101.53,274.12
		c10.6,28.34,18.7,57.44,28.14,86.13c1.49,4.54,2.43,9.35,6.27,14.14c5.81-18.18,11.55-35.56,16.93-53.06
		c14.99-48.81,33.91-96.2,51.5-144.07c21.42-58.27,43.39-116.33,64.77-174.61c2.58-7.02,6.07-9.58,13.51-9.48
		c28.07,0.37,56.14,0.11,84.22,0.17c3.43,0.01,7.03-0.63,10.26,1.46c1.62,3.17-0.4,5.78-1.42,8.41
		c-35.42,91.38-70.45,182.92-106.53,274.03c-23.36,58.99-46.15,118.19-69.2,177.29c-2.18,5.6-5.13,7.93-11.29,7.88
		c-35.9-0.24-71.8-0.22-107.7-0.02c-5.99,0.03-9.18-1.94-11.45-7.67c-21.96-55.46-44.19-110.82-66.35-166.2
		c-31.9-79.7-63.81-159.39-95.71-239.09c-7.11-17.76-14.19-35.52-22.26-55.75C639.64,414.78,659.9,415.31,680.94,415.15z"/>
	<path d="M846.18,1288.27c-73.15,0-145.5,0.01-217.84,0.01c-10.34,0-10.61-0.27-10.61-10.29c0.01-110.81,0.01-221.63,0.03-332.44
		c0-13.38,0.04-13.38,13.17-13.38c6.75,0,13.5-0.01,20.25,0.01c10.8,0.03,10.85,0.04,10.85,10.61
		c0.01,51.08-0.01,102.17-0.01,153.25c0,45.95,0.18,91.9-0.15,137.84c-0.06,7.83,2.29,10.06,10.06,10.05
		c128.22-0.2,256.45-0.13,384.67-0.13c10.97,0,10.99-0.05,10.99-11.25c0-96.22,0-192.44,0-288.66c0-11.7,0.01-11.71,11.43-11.71
		c8.37,0,16.74,0.2,25.1-0.06c5.51-0.17,7.97,1.98,7.79,7.56c-0.2,5.94-0.07,11.89-0.07,17.84c0.02,105.68,0.04,211.36,0.06,317.04
		c0,13.72,0,13.71-13.88,13.71C1014.35,1288.27,930.67,1288.27,846.18,1288.27z"/>
	<path d="M617.8,285.48c-0.02-87.57-0.03-174.33-0.05-261.09c0-13.41,0-13.4,13.32-13.4c156.02,0,312.05,0,468.07,0.01
		c12.68,0,12.7,0.03,12.7,12.43c0.01,109.73,0.01,219.46,0.01,329.2c0,2.43-0.08,4.86-0.09,7.3c-0.02,4.94-2.15,7.33-7.41,7.2
		c-9.98-0.25-19.97-0.18-29.96-0.07c-4.79,0.05-6.96-2.06-6.78-6.83c0.11-2.97-0.01-5.95-0.01-8.92c0-94.87,0-189.73-0.01-284.6
		c0-11.19-0.02-11.22-11.03-11.22c-127.95-0.01-255.9-0.01-383.85-0.01c-10.67,0-10.68,0.02-10.68,10.66
		c-0.01,96.49-0.02,192.98-0.04,289.47c0,11.44-0.03,11.45-11.66,11.46c-7.83,0.01-15.68-0.38-23.48,0.11
		c-7.3,0.45-9.28-2.69-9.2-9.52C617.95,333.86,617.79,310.07,617.8,285.48z"/>
</g>
</svg>
