<svg xmlns="http://www.w3.org/2000/svg" version="1.1" xmlns:xlink="http://www.w3.org/1999/xlink" xmlns:svgjs="http://svgjs.dev/svgjs" width="128" height="128" viewBox="0 0 128 128"><g transform="matrix(0.8046875,0,0,0.8046875,12.333870967741937,12.333870967741937)"><svg viewBox="0 0 155 155" data-background-color="#000000" preserveAspectRatio="xMidYMid meet" height="128" width="128" xmlns="http://www.w3.org/2000/svg" xmlns:xlink="http://www.w3.org/1999/xlink"><g id="tight-bounds" transform="matrix(1,0,0,1,0.25,0.25)"><svg viewBox="0 0 154.5 154.5" height="154.5" width="154.5"><g><svg></svg></g><g><svg viewBox="0 0 154.5 154.5" height="154.5" width="154.5"><g transform="matrix(1,0,0,1,52.708755082568814,47.746371)"><svg viewBox="0 0 49.08248983486238 59.00725799999999" height="59.00725799999999" width="49.08248983486238"><g><svg viewBox="0 0 49.08248983486238 59.00725799999999" height="59.00725799999999" width="49.08248983486238"><g><svg viewBox="0 0 49.08248983486238 59.00725799999999" height="59.00725799999999" width="49.08248983486238"><g id="textblocktransform"><svg viewBox="0 0 49.08248983486238 59.00725799999999" height="59.00725799999999" width="49.08248983486238" id="textblock"><g><svg viewBox="0 0 49.08248983486238 59.00725799999999" height="59.00725799999999" width="49.08248983486238"><g transform="matrix(1,0,0,1,0,0)"><svg width="49.08248983486238" viewBox="1.4 -32.7 27.200000000000003 32.7" height="59.00725799999999" data-palette-color="#90ee90"><path d="M18.45 0L11.6 0 1.4-32.7 7.55-32.7 12.15-16.25Q12.95-13.45 13.58-10.95 14.2-8.45 15.05-5.6L15.05-5.6 15.25-5.6Q16.1-8.45 16.73-10.95 17.35-13.45 18.1-16.25L18.1-16.25 22.65-32.7 28.6-32.7 18.45 0Z" opacity="1" transform="matrix(1,0,0,1,0,0)" fill="#000000" class="wordmark-text-0" data-fill-palette-color="primary" id="text-0"></path></svg></g></svg></g></svg></g></svg></g></svg></g></svg></g><path d="M52.709 41.746L52.709 1 101.791 1 101.791 41.746 96.47 41.746 96.47 6.321 58.03 6.321 58.03 41.746 52.709 41.746M52.709 112.754L52.709 153.5 101.791 153.5 101.791 112.754 96.47 112.754 96.47 148.179 58.03 148.179 58.03 112.754 52.709 112.754" fill="#000000" stroke="transparent" data-fill-palette-color="primary"></path></svg></g><defs></defs></svg><rect width="154.5" height="154.5" fill="none" stroke="none" visibility="hidden"></rect></g></svg></g></svg>