
        <svg xmlns="http://www.w3.org/2000/svg" xmlns:xlink="http://www.w3.org/1999/xlink" version="1.1" width="3162.007623888183" height="1028.7484116899618" viewBox="0 0 3162.007623888183 1028.7484116899618">
			
			<g transform="scale(8.100381194409149) translate(10, 10)">
				<defs id="SvgjsDefs3995"/><g id="SvgjsG3996" featureKey="rootContainer" transform="matrix(1,0,0,1,0,0)" fill="#fff"><rect y="0" height="1" width="1" opacity="0"/><rect y="102" width="370" height="5"/></g><g id="SvgjsG3997" featureKey="xG21Y3-0" transform="matrix(1.1534743423249731,0,0,1.1534743423249731,-12.504815987567724,-2.4061145724704787)" fill="#fff"><g xmlns="http://www.w3.org/2000/svg"><path d="M60.146,17.691H14.014c-1.741,0-3.152,1.412-3.152,3.154v34.032c0,1.742,1.412,3.154,3.152,3.154h46.133   c1.742,0,3.154-1.412,3.154-3.154V20.846C63.301,19.103,61.889,17.691,60.146,17.691z"/><path d="M69.799,36.212h18.208c1.741,0,3.154-1.412,3.154-3.155h-0.003V20.846c0-1.743-1.41-3.154-3.154-3.154   H69.799c-1.739,0-3.153,1.412-3.153,3.154v12.211C66.646,34.8,68.06,36.212,69.799,36.212z"/><path d="M91.158,42.665c0-1.742-1.41-3.155-3.154-3.155H69.799c-1.739,0-3.153,1.413-3.153,3.155v12.213   c0,1.742,1.414,3.154,3.153,3.154h18.208c1.741,0,3.154-1.412,3.154-3.154h-0.003V42.665z"/><path d="M91.157,64.511c0-1.742-1.41-3.153-3.154-3.153H69.798c-1.739,0-3.153,1.411-3.153,3.153v12.212   c0,1.742,1.414,3.154,3.153,3.154h18.208c1.741,0,3.154-1.412,3.154-3.154h-0.003V64.511z"/><path d="M60.102,61.357H41.896c-1.742,0-3.154,1.411-3.154,3.153v12.212c0,1.742,1.412,3.154,3.154,3.154h18.206   c1.743,0,3.155-1.412,3.155-3.154V64.511C63.257,62.769,61.848,61.357,60.102,61.357z"/><path d="M32.2,61.357H13.994c-1.741,0-3.153,1.411-3.153,3.153v12.212c0,1.742,1.412,3.154,3.153,3.154H32.2   c1.744,0,3.155-1.412,3.155-3.154V64.511C35.355,62.769,33.944,61.357,32.2,61.357z"/></g></g><g id="SvgjsG3998" featureKey="n48U4P-0" transform="matrix(3.777934979448947,0,0,3.777934979448947,108.61759870249602,5.390214511654104)" fill="#fff"><path d="M7.04 9.38 c1.5067 0 2.5134 0.57332 3.02 1.72 c0.78666 -1.1467 1.8333 -1.72 3.14 -1.72 c1.2933 0 2.2434 0.32666 2.85 0.98 s0.91 1.5533 0.91 2.7 l0 6.94 l-2.84 0 l0 -5.98 c0 -0.90666 -0.13666 -1.5333 -0.41 -1.88 s-0.71668 -0.52 -1.33 -0.52 c-1.2667 0 -1.9 0.86666 -1.9 2.6 l0 5.78 l-2.84 0 l0 -6.1 c0 -0.88 -0.14 -1.48 -0.42 -1.8 s-0.71334 -0.48 -1.3 -0.48 c-0.54666 0 -1.0033 0.21666 -1.37 0.65 s-0.55 1.0033 -0.55 1.71 l0 6.02 l-2.84 0 l0 -10.34 l2.68 0 l0 1.4 l0.04 0 c0.78666 -1.12 1.84 -1.68 3.16 -1.68 z M24.22 9.38 c1.6533 0 2.96 0.50334 3.92 1.51 s1.44 2.3234 1.44 3.95 c0 1.64 -0.49 2.9566 -1.47 3.95 s-2.2766 1.49 -3.89 1.49 c-1.64 0 -2.94 -0.50334 -3.9 -1.51 s-1.44 -2.3166 -1.44 -3.93 c0 -1.6667 0.49 -2.9934 1.47 -3.98 s2.27 -1.48 3.87 -1.48 z M21.720000000000002 14.84 c0 1.0533 0.21334 1.8666 0.64 2.44 s1.0467 0.86 1.86 0.86 c0.84 0 1.47 -0.29334 1.89 -0.88 s0.63 -1.3933 0.63 -2.42 c0 -1.0667 -0.21666 -1.8867 -0.65 -2.46 s-1.0633 -0.86 -1.89 -0.86 c-0.8 0 -1.4133 0.28666 -1.84 0.86 s-0.64 1.3933 -0.64 2.46 z M35.660000000000004 9.38 c1.3867 0 2.47 0.28002 3.25 0.84002 s1.2167 1.38 1.31 2.46 l-2.7 0 c-0.04 -0.49334 -0.22 -0.85 -0.54 -1.07 s-0.78666 -0.33 -1.4 -0.33 c-0.53334 0 -0.93 0.08 -1.19 0.24 s-0.39 0.4 -0.39 0.72 c0 0.24 0.08666 0.44 0.26 0.6 s0.43668 0.3 0.79002 0.42 s0.74334 0.22 1.17 0.3 c1.2933 0.25334 2.2066 0.51334 2.74 0.78 s0.92334 0.58666 1.17 0.96 s0.37 0.83334 0.37 1.38 c0 1.16 -0.42334 2.05 -1.27 2.67 s-1.9967 0.93 -3.45 0.93 c-1.52 0 -2.7034 -0.32666 -3.55 -0.98 s-1.2833 -1.54 -1.31 -2.66 l2.7 0 c0 0.53334 0.20666 0.95668 0.62 1.27 s0.93334 0.47 1.56 0.47 c0.53334 0 0.97668 -0.11666 1.33 -0.35 s0.53 -0.55668 0.53 -0.97002 c0 -0.26666 -0.11 -0.48666 -0.33 -0.66 s-0.53 -0.32668 -0.93 -0.46002 s-1.02 -0.28668 -1.86 -0.46002 c-0.66666 -0.13334 -1.26 -0.31334 -1.78 -0.54 s-0.91666 -0.52332 -1.19 -0.88998 s-0.41 -0.81666 -0.41 -1.35 c0 -0.68 0.16334 -1.2733 0.49 -1.78 s0.82666 -0.89 1.5 -1.15 s1.51 -0.39 2.51 -0.39 z M46.92 9.38 c3.0134 0.01334 4.52 0.9933 4.52 2.94 l0 5.48 c0 1.0133 0.12 1.7467 0.36 2.2 l-2.88 0 c-0.10666 -0.32 -0.17332 -0.65334 -0.19998 -1 c-0.84 0.85334 -2 1.28 -3.48 1.28 c-1.08 0 -1.9367 -0.27334 -2.57 -0.82 s-0.95 -1.3067 -0.95 -2.28 c0 -0.94666 0.3 -1.68 0.9 -2.2 c0.61334 -0.54666 1.7267 -0.89332 3.34 -1.04 c1.1467 -0.12 1.8733 -0.27 2.18 -0.45 s0.46 -0.45666 0.46 -0.83 c0 -0.46666 -0.14 -0.81332 -0.42 -1.04 s-0.74666 -0.34 -1.4 -0.34 c-0.6 0 -1.0533 0.12334 -1.36 0.37 s-0.48666 0.64332 -0.54 1.19 l-2.84 0 c0.06666 -1.1333 0.53332 -1.9933 1.4 -2.58 s2.0266 -0.88 3.48 -0.88 z M44.56 17.06 c0 0.88 0.58 1.32 1.74 1.32 c1.52 -0.01334 2.2866 -0.79334 2.3 -2.34 l0 -1.1 c-0.22666 0.22666 -0.8 0.39332 -1.72 0.49998 c-0.8 0.09334 -1.3867 0.25668 -1.76 0.49002 s-0.56 0.61 -0.56 1.13 z M56.56 5.720000000000001 l0 2.34 l-2.84 0 l0 -2.34 l2.84 0 z M56.56 9.66 l0 10.34 l-2.84 0 l0 -10.34 l2.84 0 z M61.9 5.720000000000001 l0 7.66 l3.58 -3.72 l3.36 0 l-3.9 3.8 l4.34 6.54 l-3.44 0 l-2.84 -4.62 l-1.1 1.06 l0 3.56 l-2.84 0 l0 -14.28 l2.84 0 z"/></g>
			</g>
		</svg>
	